<?xml version="1.0" standalone="no"?>
<!DOCTYPE svg PUBLIC "-//W3C//DTD SVG 20010904//EN"
 "http://www.w3.org/TR/2001/REC-SVG-20010904/DTD/svg10.dtd">
<svg version="1.0" xmlns="http://www.w3.org/2000/svg"
 width="512.000000pt" height="512.000000pt" viewBox="0 0 512.000000 512.000000"
 preserveAspectRatio="xMidYMid meet">
<metadata>
Created by potrace 1.14, written by Peter Selinger 2001-2017
</metadata>
<g transform="translate(0.000000,512.000000) scale(0.100000,-0.100000)"
fill="#000000" stroke="none">
<path d="M2240 5101 c-85 -27 -134 -56 -190 -112 -54 -54 -104 -141 -116 -205
-5 -21 -9 -42 -10 -46 -1 -5 -2 -342 -3 -750 l-2 -743 -24 80 c-12 44 -82 303
-155 575 -145 548 -151 566 -193 630 -137 207 -410 259 -620 118 -60 -41 -128
-129 -158 -206 -32 -79 -32 -216 0 -322 12 -41 24 -83 26 -92 2 -10 31 -119
65 -243 34 -124 63 -233 65 -243 3 -9 16 -60 30 -112 15 -52 30 -111 35 -130
5 -19 26 -102 48 -185 22 -82 36 -143 31 -135 -5 8 -80 137 -165 285 -186 323
-196 338 -256 386 -267 211 -659 10 -644 -330 2 -42 9 -92 17 -111 7 -19 71
-136 142 -260 71 -124 138 -241 149 -260 11 -19 37 -64 58 -100 21 -36 47 -81
58 -100 11 -19 36 -64 57 -100 114 -199 190 -392 231 -583 28 -132 35 -205 49
-494 5 -100 33 -259 57 -317 23 -57 109 -65 138 -11 13 25 12 45 -14 168 -17
85 -23 143 -31 351 -3 76 -7 142 -9 145 -2 3 -7 32 -10 63 -9 79 -59 276 -96
383 -37 106 -117 274 -190 400 -29 50 -62 108 -75 130 -33 59 -153 268 -164
285 -55 88 -190 333 -199 359 -16 47 -15 100 3 152 57 160 281 206 397 82 20
-22 198 -315 198 -328 0 -1 24 -43 54 -92 29 -49 65 -109 79 -135 147 -264
344 -598 364 -616 35 -32 76 -29 107 8 26 32 28 59 6 122 -6 18 -69 251 -140
518 -133 502 -144 544 -205 770 -21 74 -38 142 -40 150 -2 8 -22 83 -44 165
-23 83 -44 171 -47 197 -26 195 182 359 367 289 112 -42 159 -105 199 -262 12
-46 25 -97 31 -114 5 -16 54 -199 109 -405 55 -206 120 -451 146 -545 25 -93
56 -213 70 -265 89 -335 105 -385 125 -400 41 -27 86 -20 116 19 10 12 12 259
13 1077 0 1212 -6 1130 85 1220 40 41 65 56 109 69 110 32 229 -3 302 -89 67
-78 64 -25 64 -1232 0 -1025 1 -1093 18 -1113 24 -30 81 -37 110 -14 18 15 57
138 211 678 419 1463 381 1341 440 1402 54 56 106 77 196 77 65 1 88 -4 124
-23 88 -46 145 -131 154 -228 5 -55 11 -30 -148 -623 -64 -239 -118 -442 -120
-450 -2 -8 -18 -67 -35 -130 -115 -423 -173 -640 -199 -742 -30 -113 -31 -122
-31 -348 0 -133 5 -249 11 -274 42 -166 280 -226 396 -101 26 28 183 213 254
300 222 269 317 348 484 403 74 25 109 31 209 38 70 5 84 3 130 -20 55 -27 91
-71 107 -130 21 -77 -8 -147 -102 -246 -247 -260 -396 -416 -469 -493 -47 -50
-101 -107 -120 -127 -56 -59 -333 -351 -376 -396 -554 -590 -616 -647 -814
-748 -122 -62 -215 -97 -320 -120 -41 -9 -88 -19 -105 -22 -16 -4 -154 -8
-305 -10 -310 -4 -403 6 -558 56 -161 53 -309 136 -440 249 -64 55 -77 62
-109 59 -48 -4 -78 -42 -69 -90 5 -25 24 -48 77 -93 176 -150 366 -249 587
-304 125 -32 144 -33 447 -37 406 -4 561 23 814 142 223 105 317 181 611 490
52 55 161 170 241 255 81 85 164 172 184 194 21 22 108 114 194 204 86 90 172
181 191 201 171 182 341 360 419 442 118 124 147 162 171 232 59 172 -27 365
-198 444 -132 61 -396 25 -591 -80 -131 -70 -191 -126 -376 -348 -71 -85 -132
-157 -135 -160 -3 -3 -41 -47 -84 -97 -74 -87 -81 -93 -117 -93 -29 0 -42 6
-58 26 -20 25 -21 39 -21 248 l0 221 41 150 c22 83 74 274 114 425 40 151 92
345 115 430 23 85 44 166 46 179 3 14 7 27 9 31 2 4 36 128 76 276 39 148 85
319 101 379 62 228 28 379 -114 511 -173 162 -452 148 -617 -31 -45 -49 -76
-104 -101 -184 -10 -31 -100 -345 -201 -698 -101 -353 -184 -641 -186 -640 -1
2 -3 361 -3 798 -1 861 1 835 -56 939 -50 92 -158 182 -254 211 -64 19 -190
19 -250 0z"/>
<path d="M3140 1832 c-66 -8 -225 -60 -317 -103 -215 -100 -392 -251 -523
-444 -136 -201 -222 -471 -217 -683 2 -64 5 -76 26 -93 28 -23 64 -24 96 -3
26 17 32 38 40 147 17 258 131 509 314 695 131 133 237 203 408 271 42 16 143
42 259 66 59 13 69 111 14 140 -27 14 -38 15 -100 7z"/>
<path d="M969 791 c-52 -42 -13 -154 58 -167 60 -11 105 39 89 100 -3 13 -19
38 -35 55 -34 36 -76 41 -112 12z"/>
</g>
</svg>
